<?xml version="1.0" standalone="no"?><!DOCTYPE svg PUBLIC "-//W3C//DTD SVG 1.1//EN" "http://www.w3.org/Graphics/SVG/1.1/DTD/svg11.dtd"><svg class="icon" width="16px" height="16.00px" viewBox="0 0 1024 1024" version="1.1" xmlns="http://www.w3.org/2000/svg"><path d="M172.93312 413.73696l266.73152-196.23936a122.88 122.88 0 0 1 145.79712 0.1024l265.74848 196.11648A122.88 122.88 0 0 1 901.12 512.6144V839.68a122.88 122.88 0 0 1-122.88 122.88H245.76a122.88 122.88 0 0 1-122.88-122.88V512.7168a122.88 122.88 0 0 1 50.05312-98.97984z" fill="#131415" /><path d="M421.04832 82.24768a150.1184 150.1184 0 0 1 178.21696-3.42016l4.85376 3.56352L919.7568 323.74784a30.72 30.72 0 0 1-34.87744 50.50368l-2.4576-1.67936L566.82496 131.19488a88.6784 88.6784 0 0 0-104.73472-2.82624l-3.76832 2.74432-316.80512 241.4592A30.72 30.72 0 0 1 101.9904 325.632l2.29376-1.90464 316.78464-241.4592z" fill="#131415" /><path d="M512 522.24c94.33088 0 171.23328 74.48576 173.99808 167.5264l0.08192 5.18144V819.2a30.72 30.72 0 0 1-61.29664 2.94912L624.64 819.2v-124.25216c0-61.37856-50.3808-111.26784-112.64-111.26784-60.76416 0-110.1824 47.47264-112.55808 106.8032l-0.08192 4.46464V819.2a30.72 30.72 0 0 1-61.29664 2.94912L337.92 819.2v-124.25216c0-95.4368 78.00832-172.70784 174.08-172.70784z" fill="#FFFFFF" /></svg>