<?xml version="1.0" standalone="no"?><!DOCTYPE svg PUBLIC "-//W3C//DTD SVG 1.1//EN" "http://www.w3.org/Graphics/SVG/1.1/DTD/svg11.dtd"><svg t="1606121747383" class="icon" viewBox="0 0 1024 1024" version="1.1" xmlns="http://www.w3.org/2000/svg" p-id="5434" xmlns:xlink="http://www.w3.org/1999/xlink" width="16" height="16"><defs><style type="text/css"></style></defs><path d="M512 512m-450.56 0a450.56 450.56 0 1 0 901.12 0 450.56 450.56 0 1 0-901.12 0Z" fill="#131415" p-id="5435"></path><path d="M512 225.28a163.84 163.84 0 0 1 95.76448 296.79616c80.65024 35.90144 137.35936 115.8144 139.6736 209.22368L747.52 737.28v20.48a30.72 30.72 0 0 1-61.29664 2.94912L686.08 757.76v-20.48a174.08 174.08 0 0 0-348.07808-5.2224L337.92 737.28v20.48a30.72 30.72 0 0 1-61.29664 2.94912L276.48 757.76v-20.48c0-95.9488 57.38496-178.50368 139.71456-215.22432A163.84 163.84 0 0 1 512 225.28z m0 61.44a102.4 102.4 0 1 0 0 204.8 102.4 102.4 0 0 0 0-204.8z" fill="#FFFFFF" p-id="5436"></path></svg>